<?xml version="1.0" encoding="UTF-8"?>
<svg width="800" height="600" xmlns="http://www.w3.org/2000/svg">
    <!-- Background -->
    <rect width="800" height="600" fill="#f8f9fa"/>
    
    <!-- Title -->
    <text x="400" y="50" font-family="Arial" font-size="24" fill="#2c3e50" text-anchor="middle" font-weight="bold">User Workflow</text>
    
    <!-- Styles -->
    <style>
        .process { fill: #e6f3ff; stroke: #4682b4; stroke-width: 2; }
        .decision { fill: #fff2cc; stroke: #d6b656; stroke-width: 2; }
        .start-end { fill: #d5e8d4; stroke: #82b366; stroke-width: 2; }
        .title { font-family: Arial; font-size: 14px; font-weight: bold; text-anchor: middle; }
        .subtitle { font-family: Arial; font-size: 12px; text-anchor: middle; }
        .arrow { stroke: #666666; stroke-width: 2; fill: none; marker-end: url(#arrowhead); }
        .label { font-family: Arial; font-size: 12px; fill: #666666; text-anchor: middle; }
        .customer-flow { stroke: #4682b4; stroke-width: 3; stroke-dasharray: none; }
        .seller-flow { stroke: #b44646; stroke-width: 3; stroke-dasharray: 5,3; }
    </style>
    
    <!-- Arrow Marker Definition -->
    <defs>
        <marker id="arrowhead" markerWidth="10" markerHeight="7" refX="9" refY="3.5" orient="auto">
            <polygon points="0 0, 10 3.5, 0 7" fill="#666666" />
        </marker>
    </defs>
    
    <!-- Legend -->
    <g transform="translate(600,80)">
        <rect width="180" height="70" fill="#f9f9f9" stroke="#cccccc" stroke-width="1" rx="5" ry="5" />
        <text x="90" y="20" font-family="Arial" font-size="12" font-weight="bold" text-anchor="middle">Legend</text>
        <line x1="20" y1="35" x2="50" y2="35" class="customer-flow" />
        <text x="120" y="40" font-family="Arial" font-size="12" text-anchor="middle">Customer Flow</text>
        <line x1="20" y1="55" x2="50" y2="55" class="seller-flow" />
        <text x="120" y="60" font-family="Arial" font-size="12" text-anchor="middle">Seller Flow</text>
    </g>
    
    <!-- Start Points -->
    <g transform="translate(100,130)">
        <ellipse class="start-end" cx="40" cy="25" rx="40" ry="25" />
        <text x="40" y="30" class="title">Start</text>
    </g>
    
    <!-- Login/Register Process -->
    <g transform="translate(220,130)">
        <rect class="process" width="120" height="50" rx="10" ry="10" />
        <text x="60" y="30" class="title">Login</text>
        <text x="60" y="45" class="subtitle">/ Register</text>
    </g>
    
    <!-- User Type Decision -->
    <g transform="translate(400,130)">
        <polygon class="decision" points="0,25 60,0 120,25 60,50" />
        <text x="60" y="30" class="title">User Type?</text>
    </g>
    
    <!-- Customer Homepage -->
    <g transform="translate(300,230)">
        <rect class="process" width="120" height="50" rx="10" ry="10" />
        <text x="60" y="30" class="title">Customer</text>
        <text x="60" y="45" class="subtitle">Homepage</text>
    </g>
    
    <!-- Seller Homepage -->
    <g transform="translate(500,230)">
        <rect class="process" width="120" height="50" rx="10" ry="10" />
        <text x="60" y="30" class="title">Seller</text>
        <text x="60" y="45" class="subtitle">Homepage</text>
    </g>
    
    <!-- Customer Actions -->
    <g transform="translate(200,330)">
        <rect class="process" width="120" height="50" rx="10" ry="10" />
        <text x="60" y="30" class="title">Browse</text>
        <text x="60" y="45" class="subtitle">Products</text>
    </g>
    
    <g transform="translate(400,330)">
        <rect class="process" width="120" height="50" rx="10" ry="10" />
        <text x="60" y="30" class="title">Place</text>
        <text x="60" y="45" class="subtitle">Order</text>
    </g>
    
    <g transform="translate(300,430)">
        <rect class="process" width="120" height="50" rx="10" ry="10" />
        <text x="60" y="30" class="title">View</text>
        <text x="60" y="45" class="subtitle">Order History</text>
    </g>
    
    <!-- Seller Actions -->
    <g transform="translate(600,330)">
        <rect class="process" width="120" height="50" rx="10" ry="10" />
        <text x="60" y="30" class="title">Add/Update</text>
        <text x="60" y="45" class="subtitle">Products</text>
    </g>
    
    <g transform="translate(600,430)">
        <rect class="process" width="120" height="50" rx="10" ry="10" />
        <text x="60" y="30" class="title">Manage</text>
        <text x="60" y="45" class="subtitle">Inventory</text>
    </g>
    
    <g transform="translate(600,530)">
        <rect class="process" width="120" height="50" rx="10" ry="10" />
        <text x="60" y="30" class="title">View</text>
        <text x="60" y="45" class="subtitle">Orders</text>
    </g>
    
    <!-- End Point -->
    <g transform="translate(300,530)">
        <ellipse class="start-end" cx="40" cy="25" rx="40" ry="25" />
        <text x="40" y="30" class="title">Logout</text>
    </g>
    
    <!-- Arrows - Customer Flow -->
    <path class="arrow customer-flow" d="M140,155 L220,155" />
    <path class="arrow customer-flow" d="M340,155 L400,155" />
    <path class="arrow customer-flow" d="M400,180 L360,230" />
    <text x="370" y="215" class="label">Customer</text>
    <path class="arrow customer-flow" d="M300,280 L260,330" />
    <path class="arrow customer-flow" d="M320,280 L400,330" />
    <path class="arrow customer-flow" d="M320,380 L320,430" />
    <path class="arrow customer-flow" d="M260,380 L300,430" />
    <path class="arrow customer-flow" d="M340,480 L340,530" />
    
    <!-- Arrows - Seller Flow -->
    <path class="arrow seller-flow" d="M520,180 L560,230" />
    <text x="550" y="215" class="label">Seller</text>
    <path class="arrow seller-flow" d="M560,280 L600,330" />
    <path class="arrow seller-flow" d="M660,380 L660,430" />
    <path class="arrow seller-flow" d="M660,480 L660,530" />
    <path class="arrow seller-flow" d="M600,555 L340,555" />
    
    <!-- Database Interaction Note -->
    <g transform="translate(100,480)">
        <rect width="150" height="80" fill="#f9f9f9" stroke="#cccccc" stroke-width="1" rx="5" ry="5" />
        <text x="75" y="30" font-family="Arial" font-size="12" font-weight="bold" text-anchor="middle">Database Updates</text>
        <text x="75" y="50" font-family="Arial" font-size="10" text-anchor="middle">• Inventory changes</text>
        <text x="75" y="65" font-family="Arial" font-size="10" text-anchor="middle">• Order records</text>
        <text x="75" y="80" font-family="Arial" font-size="10" text-anchor="middle">• User information</text>
    </g>
</svg>