<?xml version="1.0" encoding="UTF-8" standalone="no"?>
<svg width="800" height="600" xmlns="http://www.w3.org/2000/svg">
  <!-- System Architecture Diagram for Pharmacy Drug Management System -->
  
  <!-- Styles -->
  <style>
    .component { fill: #e6f3ff; stroke: #4682b4; stroke-width: 2; }
    .database { fill: #ffe6e6; stroke: #b44646; stroke-width: 2; }
    .user { fill: #e6ffe6; stroke: #46b446; stroke-width: 2; }
    .title { font-family: Arial; font-size: 14px; font-weight: bold; text-anchor: middle; }
    .arrow { stroke: #666666; stroke-width: 2; fill: none; marker-end: url(#arrowhead); }
    .label { font-family: Arial; font-size: 12px; fill: #666666; text-anchor: middle; }
  </style>
  
  <!-- Arrow Marker Definition -->
  <defs>
    <marker id="arrowhead" markerWidth="10" markerHeight="7" refX="9" refY="3.5" orient="auto">
      <polygon points="0 0, 10 3.5, 0 7" fill="#666666" />
    </marker>
  </defs>
  
  <!-- Title -->
  <text x="400" y="30" font-family="Arial" font-size="20" font-weight="bold" text-anchor="middle">Pharmacy Drug Management System - Architecture</text>
  
  <!-- User Components -->
  <g transform="translate(100,100)">
    <rect class="user" width="120" height="60" rx="10" ry="10" />
    <text x="60" y="35" class="title">Customer</text>
  </g>
  
  <g transform="translate(100,200)">
    <rect class="user" width="120" height="60" rx="10" ry="10" />
    <text x="60" y="35" class="title">Seller</text>
  </g>
  
  <!-- Web Components -->
  <g transform="translate(300,100)">
    <rect class="component" width="120" height="60" rx="10" ry="10" />
    <text x="60" y="35" class="title">Customer UI</text>
  </g>
  
  <g transform="translate(300,200)">
    <rect class="component" width="120" height="60" rx="10" ry="10" />
    <text x="60" y="35" class="title">Seller UI</text>
  </g>
  
  <!-- Application Components -->
  <g transform="translate(500,150)">
    <rect class="component" width="120" height="120" rx="10" ry="10" />
    <text x="60" y="40" class="title">Business Logic</text>
    <text x="60" y="60" font-family="Arial" font-size="10" text-anchor="middle">(JSP Pages)</text>
    <text x="60" y="80" font-family="Arial" font-size="10" text-anchor="middle">- Authentication</text>
    <text x="60" y="100" font-family="Arial" font-size="10" text-anchor="middle">- Order Processing</text>
    <text x="60" y="120" font-family="Arial" font-size="10" text-anchor="middle">- Inventory Mgmt</text>
  </g>
  
  <!-- Database -->
  <g transform="translate(500,350)">
    <rect class="database" width="120" height="60" rx="10" ry="10" />
    <text x="60" y="35" class="title">MySQL Database</text>
  </g>
  
  <!-- Arrows -->
  <!-- Customer to Customer UI -->
  <path class="arrow" d="M220,130 L300,130" />
  <text x="260" y="120" class="label">HTTP</text>
  
  <!-- Seller to Seller UI -->
  <path class="arrow" d="M220,230 L300,230" />
  <text x="260" y="220" class="label">HTTP</text>
  
  <!-- Customer UI to Business Logic -->
  <path class="arrow" d="M420,130 L500,180" />
  <text x="450" y="140" class="label">JSP</text>
  
  <!-- Seller UI to Business Logic -->
  <path class="arrow" d="M420,230 L500,220" />
  <text x="450" y="210" class="label">JSP</text>
  
  <!-- Business Logic to Database -->
  <path class="arrow" d="M560,270 L560,350" />
  <text x="580" y="310" class="label">JDBC</text>
  
  <!-- Key Features -->
  <g transform="translate(100,350)">
    <rect width="300" height="140" fill="#f9f9f9" stroke="#cccccc" stroke-width="1" rx="5" ry="5" />
    <text x="150" y="30" font-family="Arial" font-size="14" font-weight="bold" text-anchor="middle">Key Features</text>
    <text x="20" y="60" font-family="Arial" font-size="12">• User Authentication (Customer/Seller)</text>
    <text x="20" y="85" font-family="Arial" font-size="12">• Product Management & Inventory Control</text>
    <text x="20" y="110" font-family="Arial" font-size="12">• Order Processing with Triggers</text>
    <text x="20" y="135" font-family="Arial" font-size="12">• Reporting (Order History)</text>
  </g>
  
  <!-- Technologies Used -->
  <g transform="translate(500,450)">
    <rect width="250" height="100" fill="#f9f9f9" stroke="#cccccc" stroke-width="1" rx="5" ry="5" />
    <text x="125" y="30" font-family="Arial" font-size="14" font-weight="bold" text-anchor="middle">Technologies</text>
    <text x="20" y="55" font-family="Arial" font-size="12">• Frontend: HTML, CSS, JSP</text>
    <text x="20" y="80" font-family="Arial" font-size="12">• Backend: Java, JDBC</text>
    <text x="20" y="105" font-family="Arial" font-size="12">• Database: MySQL</text>
  </g>
</svg>